<mxfile host="65bd71144e">
    <diagram id="Zk49GusjAszBo4pR2l6e" name="Страница 1">
        <mxGraphModel dx="1249" dy="357" grid="1" gridSize="10" guides="1" tooltips="1" connect="1" arrows="1" fold="1" page="1" pageScale="1" pageWidth="827" pageHeight="1169" math="0" shadow="0">
            <root>
                <mxCell id="0"/>
                <mxCell id="1" parent="0"/>
                <mxCell id="2" value="" style="shape=image;imageAspect=0;aspect=fixed;verticalLabelPosition=bottom;verticalAlign=top;image=data:image/jpeg,/9j/4AAQSkZJRgABAQAAAQABAAD/4gIoSUNDX1BST0ZJTEUAAQEAAAIYAAAAAAQwAABtbnRyUkdCIFhZWiAAAAAAAAAAAAAAAABhY3NwAAAAAAAAAAAAAAAAAAAAAAAAAAAAAAAAAAAAAQAA9tYAAQAAAADTLQAAAAAAAAAAAAAAAAAAAAAAAAAAAAAAAAAAAAAAAAAAAAAAAAAAAAAAAAAAAAAAAAAAAAlkZXNjAAAA8AAAAHRyWFlaAAABZAAAABRnWFlaAAABeAAAABRiWFlaAAABjAAAABRyVFJDAAABoAAAAChnVFJDAAABoAAAAChiVFJDAAABoAAAACh3dHB0AAAByAAAABRjcHJ0AAAB3AAAADxtbHVjAAAAAAAAAAEAAAAMZW5VUwAAAFgAAAAcAHMAUgBHAEIAAAAAAAAAAAAAAAAAAAAAAAAAAAAAAAAAAAAAAAAAAAAAAAAAAAAAAAAAAAAAAAAAAAAAAAAAAAAAAAAAAAAAAAAAAAAAAAAAAAAAAAAAAFhZWiAAAAAAAABvogAAOPUAAAOQWFlaIAAAAAAAAGKZAAC3hQAAGNpYWVogAAAAAAAAJKAAAA+EAAC2z3BhcmEAAAAAAAQAAAACZmYAAPKnAAANWQAAE9AAAApbAAAAAAAAAABYWVogAAAAAAAA9tYAAQAAAADTLW1sdWMAAAAAAAAAAQAAAAxlblVTAAAAIAAAABwARwBvAG8AZwBsAGUAIABJAG4AYwAuACAAMgAwADEANv/bAEMAAwICAgICAwICAgMDAwMEBgQEBAQECAYGBQYJCAoKCQgJCQoMDwwKCw4LCQkNEQ0ODxAQERAKDBITEhATDxAQEP/bAEMBAwMDBAMECAQECBALCQsQEBAQEBAQEBAQEBAQEBAQEBAQEBAQEBAQEBAQEBAQEBAQEBAQEBAQEBAQEBAQEBAQEP/AABEIAgQB3wMBIgACEQEDEQH/xAAdAAEAAgMBAQEBAAAAAAAAAAAABwgFBgkDBAIB/8QAYRAAAAYBAgMBCAcRDAgEBgMAAAECAwQFBgcRCBIhExQVFhgiMUFXUVaVlrXT1AkXGSMyNzhTVWFxd5KUl9HVJEJSc3R1doGRk7PSMzQ1NmOxsrZDRFhiJSZygoTBJ6G0/8QAHQEBAAEFAQEBAAAAAAAAAAAAAAcCAwQFBggBCf/EAEgRAAIBAgIEBw0GAwgCAwAAAAABAgMRBAUhMVGRBhITF0FT0QcUFRYyUmFxkqGxweEiNVRygdJCsvAjMzRigtPi8XOiNmOz/9oADAMBAAIRAxEAPwDqmAAAAAAAAAAAAAAAAAAAAAAAAAAAAAAAAAAAAAAAAAAADmXxpcSWX5xqJd6ZUFzLrcVxuYuteYivqaOwktHyvKfNJlzIS4SkpQZmnyCUZcx+TVc62uMzM4EczPzmbSf1Detavr16j/0zvfhB8acIazXF1sRjKkqknobXqSZ7z4I5RgspyXDUcLTUU4Rb0aW2k22+lt/1Y+bvZW/c+N/dJ/UHeyt+58b+6T+ofSA13HltOl5OGxHzd7K37nxv7pP6g72Vv3Pjf3Sf1D6QDjy2jk4bEfN3srfufG/uk/qDvZW/c+N/dJ/UPpAOPLaOThsR83eyt+58b+6T+oO9lb9z4390n9Q+kA48to5OGxHpUSJOPT2rXHpb9VOYUS2pUB1Ud5tRdSNLjZkpJl7JGOofBNr/AHetuBWNbl7qX8ixV5mNJlEREcuO6lRsvLItiJwzbdSrYtj5CV51GRcuBeD5l9/tLVH+Iof+qwHT8FMVWjj1RUnxZJ3XqVyJu7JlGDxHBqrjp01ytJwcZW0rjTjFq+xp6ttmXzAAEnnkAAAAAAAAAAAAAAAAAAAAAAAAAAAAAAAAAAAAAAAAAAAAAAAAAAAAAAAAAAAAAAAAAAAAAAAAAAAAAAAAAAAAAOLutX169R/6Z3vwg+NOG461fXr1H/pne/CD404Qjjv8VU/M/iz9Bsi+68N/44fyoAADFNqTBjehVBIwjFs2znUJ7HomYz34FdIZp+7IMVTZ8pHNkm82mOalErySS4ZISaj22USf7a8MuZMUuLWGN2lRkUrIzszW1AsYhsRmobikm/25vcpsmlJqNxRISgzShRkpREf3aRau4PgTFBNTeZ5i82slG7dQsfUUiFkaEqJTRvpelNpZVymptRE26k07KIkmZkM9Ua6aLSoWPJyjCpqDpk5Ehmvbp4c+DBVYSTfjutNvOoQ92JbI7NbaUnvuRlykR72nRwE6aU7J2XS9d43em687Q0relWZHeKxvCTD4mUqKlOClLQ4Jq1qvFVlZtXVP7SnJtWvxG5QceO8OmrbEeXOk0dXHgwo0Wa9PfyGtbh9hJ3JhxMhT5NLSs0mRGlR7n085kQxesumT+kGoNhgj9zGte4ktLRKZU2XOlbaVeUhDi+zURmZcqlb7ESttlEJa1Y4i8AzLTeywrHYF63JlVtLXNuP1kOEwfcLzy1qNqM5yNkonEmSEI5UmRl5iIzi/XfN8c1I1NtM4xcrJES1RHWtmfGbZcZdQ0ltSS5HFktPkEZK3SZ7mXKW252MZRwVKm1h5caWjS3+a6skv8pscjx2f4zFRlmVNU6dpqyi1pSpOLbcm1e9RJaFZabuzI/AAGpOzAvB8y+/2lqj/ABFD/wBVgKPi8HzL7/aWqP8AEUP/AFWA6Hgt96U/VL+Vka913/4fi/XT/wD0gXzAAErni4AAAAAAAAAAAAAAAAAAAAAAAAAAAAAAAAAAAAAAAAAAAAAAAAAAAAAAAAAAAAAAAAAAAAAAAAAAAAAAAAAAAAOLutX169R/6Z3vwg+NOElcSuKW+Ha+59W3EVxlcy/m20dSk7Jdjy3lyG1pPzKLZ3lMy8ykqI+pGRRqITzCLhi6sZKz4z+J+gXB2rCvlGFqU3dOnCzX5UAABhm5AAAAAAAAAAAAvB8y+/2lqj/EUP8A1WAo+L9fMysUt4FDnmayorjVddSa+vhrWnYnlRUyFOqTv50kcpKdy6cyVFvukyLouCsXLM4NLUn8GRj3YKsKfBHExk7OTppel8pF2X6Jv9C7IAAlY8ZAAAAAAAAAAAAAAAAAAAAAAAAAAAAAAAAAAAAAAAAAAAAAAAAAAAAAAAAAAAAAAAAAAAAAAAAAAAAAAAAAAAABG+svD5phrtXx4ueUzi5cIjKHZQ3jYlxiPzpSstyUk/4CyUnfrtuRGUHn8zQ0TMzMs81DL73dtf8AIxbgBg18tweKnx61NN7Wjost4XZ7k9HvbA4qcILoUtC9S6P0Kj/Qz9FPb7qH+eV/yMPoZ+int91D/PK/5GLcALPgTLupjuNhzhcKfx1TeVH+hn6Ke33UP88r/kY0rV7gF0pwDFIF7TZtnL0iVlGNUi0yZUFSCYsLqFBeURJiJPnS1JcUg99iWSTMlERpO9oiriW+t1UfjAwT/uqrDwJl3Ux3DnC4U/jqm8hz6Gfop7fdQ/zyv+Rh9DP0U9vuof55X/IxbgA8CZd1Mdw5wuFP46pvKj/Qz9FPb7qH+eV/yMPoZ+int91D/PK/5GLcAHgTLupjuHOFwp/HVN5VOo+Zu6DV09qXY3+b3DDaiNcOZZR22nS9hSo8dpwiP/2rI/vkLO0VFTYxTw8fx6sjV1bXspYixY7ZIbabT5kpIvMPvAZWGwWHwd+Qgo32I02bcIc1z3i+EsRKpxdSk20vUtV/SAABlGmAAAAAAAAAAAAAAAAAAAAAAAAAAAAAAAAAAAAAAAAAAAAAAAAAAAAAAAAAAAAAAAAAAAAAAAAAAAAAAAAAAAAAAAAAAAACLOJFpT2nlQhBoIyz7BleUsklsWUVhn1M/PsXQvOZ7EW5mRCUxFXEv9biqP2M9wY/7MorDAEqgAAAAAAAAAAAAAAAAAAAAAAAAAAAAAAAAAAAAAAAAAAAAAAAAAAAAAAAAAAAAAAAAAAAAAAAAAAAAAAAAAAAAAAAAAAAAD8PPNR2VyH3EobaSa1qUexJSRbmZgD9gOfL3E5rvbPu2kPUeXXRpjin2IjVXXKTHaUZmhsjXHUo+VJkW6lGfTqY/PjGcQHrZsPcmr+Sjhp90HKoyceLPR6F+40zzzDr+GW5dp0IAc9/GM4gPWzYe5NX8lDxjOID1s2HuTV/JRTzhZV5k9y/cPDmH82Xu7ToQA57+MZxAetmw9yav5KHjGcQHrZsPcmr+ShzhZV5k9y/cPDmH82Xu7ToQKBfNQdZdftA2MYyrE+9Fxp9c2FV3RCsYO/e26rLBuxjrJ5tSHDTIKOlBoUaiJLDu3IaiMvk8YziA9bNh7k1fyUYTL9VtU8/qEUOaZyu5rkS405MaXS1a0E+w6l1pexxfOlaEn7BluR7kZkbnCyrzJ7l+4eHMP5svd2l3OHj57TujuN2euViiTm9rHVZWrLcREZEBT61ONwibQRbGw2pDSjM1KNSFGalb7iRxz38YziA9bNh7k1fyUPGM4gPWzYe5NX8lDnCyrzJ7l+4eHMP5svd2nQgBz38YziA9bNh7k1fyUPGM4gPWzYe5NX8lDnCyrzJ7l+4eHMP5svd2nQgBz38YziA9bNh7k1fyUPGM4gPWzYe5NX8lDnCyrzJ7l+4eHMP5svd2nQgBz38YziA9bNh7k1fyUPGM4gPWzYe5NX8lDnCyrzJ7l+4eHMP5svd2nQgBz38YziA9bNh7k1fyUEcQ3EZJdZh12qc12ZKebjRm11NZyrdcWSEEe0Yj2NSi8xiqHdAyupJQjCd36F+4LPMO9CjLcu06EAPygjSkkqUajItjM/T98fodybkAAAAAAAAAAAAAAAAAAAAAAAAAAAAAAAAAAAAAAAAAAAAAAAAAAAAAAAAAAAAAAAAAAAAAAI84hchPGNFMws0OKbdcrHIDK0+dL0kyjtmX3yW6kSGK68bV8cPT+ixpp7lcublDjqP4TEdtbh/2O9h/aNZnWJ7zy+tX2Re+1l7zGxlTksPOfoKeNoS0hLaC2SgiSRewRD9AA83nCgAG26d4/iuQTbBrJ7Q45x4Snocbu9mD3W8Rls33S+lTbfTc/KLr6BeoUZYioqUdb2/19XqWkrhBzlxUakAsVS6W4BY1bWJWFDeQHFZW/FVLffilObbRXHIJJqQ0tKm9iLYkqMlGfORlvylh67TvT27wmHlMhF5HrY1TaWSIzbsQpKuwlJQlC30xiNfMRn1WSuXciLoWx7l8HsRbRJam+nRbi3vddHGX9Xtld4z2r+rX+JBoCeLDRTTykfiT7KfkT9bd2NbW1zLDzCX465LJOKW8s0GlZFv0JKU7/8A9jBa2UFTidBjNFTwIjbaHrJDsnuVkpUg2ZS2kG48lJLV5Po35d+u3QtrVfI8RhaVSrWaXE6FpetJb739RTPBzpxlKfR22IkASpltbXzbHTNSK+DEXb18Q5aokFhknVqkGk1qQlHIo9tvqkmR+kjG52ei2nr1y1XSpl6VlcOXSmXGFRWozPcbiiTu0hlJbKIi3JHKRbHttuRF9p5HXrykqTT4vF16PKtb9btL5hYOc21F6re+3aV4ATqxongc6THoYkvIkWaqGHfvSVuMqjEhxxCXGSSTZKJRkajSrmMiPoZHse+QwTSjCqvM1u2ESZaMxMrlUDMeUtpTK2kwnHSW4k2jJaiNPo2LzH6Otynwcxc6kYNpKTSvfV/0VRwNVtJ20legHpJVGXJdVDacaYNajaQ64Ti0o36EpRJSSjIttzJJb+wXmHmNC9DMMAAD4fAN30LoU5LrThlWtClNs2XfJwy8ySitqfSZ/e7RtsvwmQ0gT9wV0XfDUq+yJREaKWmRFIjLzOSntyP8JJiqL8Cvvje8GsL35m1Cn0ca79UdPyMvA0+VxMI+n4aS5oAA9DHcAAAAAAAAAAAAAAAAAAAAAAAAAAAAAAAAAAAAAAAAAAAAAAAAAAAAAAAAAAAAAAAAAAAAAABTDjSvTsNTqPHkmSm6WlVIMy9Dsp4yUn8JJjNn+BRC545064Xqcl1nzS2QozbbtDrmyPzJKIhMdRF97tGnD/CoxxXD3FchlPJrXOSX6LT8jUZ1U4mH4u1/U0oAAQicmBm8VyTJcflux8acJblogojsVcRuW3KI1FyoNlxKkrPm228kz383nGEFkaiqREqMcuo2K1dIxGcpDJc2kivJkrXIIlOxrBC1G64oj3U24k+QuvkmRGNtlOCqYuo5U5uLjputdunTdW0enTs12ycNSlUk3F2sRbX6kauIupFXBlSXreRYOSXIx1TLshMvsjZXyIU2amzJsjQaUkRERGWwwjGoGZV9J4LNWptV7cWRAOOcZrcmXnCW6g1Gnm6rIj333LzEZELFzK2CvLKGDd4dSG/eZZctzlSaSMTrzDalKZIzU3uRGnkVzFsat9zM+YzPC2FTiTtXMoJeK0caGxg8S2XMYrGky0SDc2U6TpJ59+UvNvsfp33G+q5Ti0nbEy0XWlvpUZW16L6L+latFzNlhqln/aP37E/+zRdPdZcpYtW2ZFXc5NYunHRGhQ1x0trTHQfZl2Pcri+dJb+W2pC9vT03GPza/wAm1Jgx6teA2yLnHHJb1i5HS4tDaXnVOuc7HZczOyj23UsyIiPcvSVgMZxmDX5FMkN4bTwIUO4jtUU6PXMtOOxFQlGakupLmdSo+prMz3Uai36bFXfQ3/e+b/Mdl/8A51CrF4fF0IUcFiKzlGpKUXoWpOOnSm9MtKd9XrZ9qU6sFGlOV1JtfD5mKyjPUXDmNLpKx6sPGYbUWOp6SmSta0LNZOGfZoT5z83KZdPSDurOoD1hGtXL/eVD7r7FzuVjye6TM3+nJsfMZn5y6ejYbZotTIsceySXSY1XX+TR3oCYsKdDbkpTGU7s8tLayMvYJStjNJdem4lj52+G2OVUbmK4vTzaeBd2jVstplp5pr6Ruhp0z33InFbISrzdNvQMbCZbj8fTjiKdZpz4uhXX8XFWqy+zxbvzVZ9Oi3Sw9atFTjLXb426Nlr+ghjNNXM7mQa2rYjSsdhKqYbKEk0lL0ppv6l1L/Zpd7NSk7kklGncj8/UY6TrfqdLkxZb+Rt9rDlnPaUiuio/dBtqbNxRJbIlqNC1EfNvvv132ITaVfaX2HN2rGGVlvOj4JXOVJuUbD37pN1ZOk0nszJakp5T7PYyLf6nyj3/AG7pzjNtfRmcexapkqh5fEO6aYitqbiNKgoN1pRbeSz2vN5PVJK3LzlsWbVyzMq0lUp4iX2uLbWttrJO2izdlqTT6S7LD15O8ZvTb0f1YrDYRrM0t3M6vcYZsluuMOlG7Fl4yVsvsiSRI2So9tk9E+bYvMPjEza0nLPAcUbYrY7VdGsrqMS2IDTaG1ImLS23zoSWxmgjPl38rbmPcy3EMjk8xwqwdfkk29EXd/5op/M1tenyU+LfoXvVwAAMEsgXD4J6E4Wnd1kjrJJcurpxLS/4TEdtDRF/U6T/APaKdOOJabU6s9koI1GfsEQ6GcP+Oni2i2H1LjRtvKq2pj6FedL8jd90j++S3VDv+55heVzCdd6oR97fZc3OSU+NXc9i+JIIAAmQ6oAAAAAAAAAAAAAAAAAAAAAAAAAAAAAAAAAAAAAAAAAAAAAAAAAAAAAAAAAAAAAAAAAAAAAD4rq1iUVPOvJ6+SNXRnZbyvYbbSalH/YRjl6xJlzm++FgvnlzVKlSFey64ZrWf5SjF+uKK+VQ6F5QbSi7WzYbqUJM/qilOoZc/sbW4f4EmKE+YRR3R8Vxq1DDLoTlvdl8Gc1ntS9SFPYr7/8AoAACMzQgAAABnKfE7u5rlWtPDfmLalIjIjMwn3luOGRqLY0tm35iPyVKJR+hJkMGJn0P1DxHDqdEbILjuN9OQMTtu53XNmUsLSa90JMuilEW3n+8NhlmHoYnEKniJqEXfS9Fvei/h4QqVOLN2R+ceb4g3XXmq2neoToozl4lgsbahIfUlPZ9G245JecNKlEklkZdFbGWw0mjt8sqa64zWmkw4vdKzr5Jop0mXK6k+Ym1EwbLJGW5bJUhRl5iMhIlbqPiczFW6e0ygmpjtLkMFbkhiQtLbsqSytglGlCj2UlCj6Ee3p2GiVmSUsfR+6xZ6by2ku5jS2WOzWfM0hBkpXNtylsZ+Yz3G4xLpLiOniG7RlK7ne0uKmloeh/w+m2roMqo4q3Fm9Tevpt/SNHGy4ZgVlmhTn41lXVsOuJkpEue6tLSVur5GkeQlajUpW+2ydi2PcyGbq9UO91AzS989QEdlH7Hki5f2EUum2yWO5lcqP8A28x/hHtprkmNtYzfYbkt0iobsZMCdHmLjOOoJTDu621dklS9zSfk+TtuR7mXQazC4bCSrQjKpxk027/ZSajdJt7XouY9OnSc0nK+v0abaNPrNdsV5bp7LyDBpDxRVSDTEs2UpQsnSQrmTsoyMyLfYyNJluR9RrY2vVTKIGZ6g3WS1aXChzHy7DtC2UaEISglGXo3JO+33xqgxMZxY1pU6cuNCLajp6Lu2/X+paq2U3GLule3qAAAxS2AAAB7QaZzJLSuxhlZocu58arSovOk33Utb/1c++/o23HUNtttltDLSEoQhJJSlJbERF5iIc/+GyhPIdc8ZaU0TjNX3TbPkZeZLTRoQf8AU86yf9Q6BCYu53heTwNTEP8Ailb9IrtbOnyOnalKptfw/wCwAAJBN4AAAAAAAAAAAAAAAAAAAAAAAAAAAAAAAAAAAAAAAAAAAAAAAAAAAAAAAAAAAAAAAAAAAAABWPjivSbosQxNJnzTrJ+zWRH50Rmez2P73NKQf4U/eFUBNXGBfFb6ypqWnuZqhp48dSP4D7y1ur/tbNj+wQqIF4Z4rvnOKttUbR3LT77nGZpU5TFS9GjcAAByxrwAAAA2zFtOL7Mqhc6ghSpUo57cBppJMJaWtSDVsa1upUStknsXIafZUR9BqYlbSPVbHsBqkwbeHYuuFdM2W8ZtCi7NDK0GXlLT5W6i+9t6RsMspYWtiFDGS4sNOn+rl/Dxpynaq7I+Kt0HzF1Niu8XBq0RKqTZR1qnxHUSVMrSlTZKS9snYz2UozPkPYlEXMQ1KNjEiTh83LUpk9jDmNQ1Glto2t1pMy3UbhLJXToRNqL2VF5hINTqxirWNN4/ZM26DVVXle68zHbc5VzZDTjaiI3U8xETZ825l1MttxhoM2BB0Ls66RZQimWV7HejRUSW1vm22hRKUptJmpBb+lRFv0233IbGrhcvkl3u3ZQk3d3fG4qaT0LU3bVp9ZflToPyNjevpt26DW4unmfzq9FtCwbIJEFxvtUSWqx9bSkefmJZJ2Mvv77DIYJgUXKoVndXN8qoqqtUZlx9EQ5Li3n3ORtKUcyC2Lqaj5tyIi6Hv0x8XJqWPXohvaeY/JeQ3yHLdfsCdWf8MyRJSjf8CSL7wzenua0FLS3OK5Yiy72Wj0OWh2A224409Hd5tuRakEZLSZkZ83TYuh7jDwtPButBVGmrO927X4uhPRGyvsb9fSWqcaXHXG1ad9tHQuk17M8WmYVlNli095t56ueNo3G9+VxOxGlRb+bdJke33xhRsWoeWJzjNbbKkRTjN2D/ADttKVuaEJSSUkZ+zypLf7410YWKVJV5qh5F3b1X0e4s1OLx3xNV9HqAAAxygAAACx3BDQlJyrLcqcaP9wQYtYw56DN5anXk/wBRNMH/AFkLeiCODOi72aPruldVZBcTJu5l1JDaijJL8G0fcv8A6t/SJ3HoTgvhe9MooQ6Wr+1p+Z2uW0+TwsFt079IAAG/M4AAAAAAAAAAAAAAAAAAAAAAAAAAAAAAAAAAAAAAAAAAAAAAAAAAAAAAAAAAAAAAAAAAAAwmcZG3h+GX2WOkRppqyTPNJ/vuyaUvb+vl2FM5KEXKWpHxtRV2c9NT75WUaoZhkJrStMq6ktNLL98ywrudpX9bbKDGtDwgtLYhsMuqNTiW0ktRnualbdTM/ZM9x7jzPjMQ8ViKleWuTb3u5wFSbqTc306QAAMYoAAAACVNLtJYuomMPyXbSLWrTZnGOUqK686hCYynT22eSjlPl6kaDV6eb0CKxu2E6tZHgdS9T08KteZekqlKVJbcUolqZUyZEaVpLblUZ+bz7fgGxyueEp4hPGq9OzutPy0l/DulGd6yujeK/R/BoWK3GRTL2ZbRpGOqtax8q82HY60vcijU2T+xnvsREajIyMz6bFvqmAaXVGX48rILjLnahs7iPTNNt13dKluvEXKr/So2IjPr5+henzDwh6xZDEoW8acqKiTBbqXKc0OtvEpbK3O05jNDiT5yV5jLYvZIxiqHUG5x2kboYUaEuO1bx7olOoWa+3Z25U7koi5D26ltv98hsZ4nKpVKbVP7Ki7r7XlPTrvdpPVpL7qYZyj9nRbTr17z5pGLx4WVWeMWWSV9cVbJfjKmSm3zaWppw0dCZbcWRnsZl5O3smMvQ1uMVd23XuuY7l65yUoZW7Yy66FFMlka1PLdQwozNBGSdlkkjPqSj2SMKvM8kbyWwyyrtpVTY2T7z7ztc+4wZdqs1qSRpVzcu5+YzPzF5x9zWot9KdeXlqWstQ80TJIvXX5CmSJRKI2nUuJdaPcupIWRKI9lEfTbApVcLCbsraXZtX0em7a/9G1r1lmMqaf67P6+B+9VcbrsS1AuaGmZkNwI75HGS/zb9mpJK6GoiNSdzMkq9JER7nvuNTGZy7K7bNb+TkVypruiRypJtlJpaaQlJJShCTM9kkRERdT9k9zMzGGGLjJ0qmInOirQbbXRovo0Fuq4ym3DVcAADGLYHlLfTFivSl7crLanD39gi3HqMriNCWV5njmLLZN1u2t4cV9JfaDdSbx/1NEs/wCoX8NReIrQox1yaW9lUYuclFdJ0K0nxleHaZYtjDzZIfrqmKzIIi23f7MjdP8ArWaj/rG2AA9M06apQVOOpK247+MVCKiugAACsqAAAAAAAAAAAAAAAAAAAAAAAAAAAAAAAAAAAAAAAAAAAAAAAAAAAAAAAAAAAAAAAAAAAhfi7viptErKAh423r2ZEq2jL0kp0nHU/wBbLTpCaBq+oGmmF6o1UelzipcsIcSSUxhDcx+MpDxIUglEtlaFfUrWW2+2yjGFmNCricJUo0GlKUWk3q0q3QWcRCVSlKENbVjm4AvR4onD/wC06w98dp8oDxROH/2nWHvjtPlAinm6zLrIb5ftOb8B4nbHe+wouAvR4onD/wC06w98dp8oDxROH/2nWHvjtPlAc3WZdZDfL9o8B4nbHe+wouAvR4onD/7TrD3x2nygPFE4f/adYe+O0+UBzdZl1kN8v2jwHidsd77Ci4C9HiicP/tOsPfHafKA8UTh/wDadYe+O0+UBzdZl1kN8v2jwHidsd77Ci4C9HiicP8A7TrD3x2nygR/rlw26O4dgka5xzHLCJMcyfGa5Tnf+xc3jy7uFGkI2W+ZeUy84jfbcubdJkZEZObrMushvl+0eA8TtjvfYVXAXo8UTh/9p1h747T5QHiicP8A7TrD3x2nygObrMushvl+0eA8TtjvfYUXAXo8UTh/9p1h747T5QHiicP/ALTrD3x2nygObrMushvl+0eA8TtjvfYUXAXo8UTh/wDadYe+O0+UB4onD/7TrD3x2nygObrMushvl+0eA8TtjvfYUXEtcKVF381zq5KiM0UNfNtD6dOY0pjpI/v/ALpUZf8A07+gWO8UTh/9p1h747T5QNt0+0Y030skzZmD4+5BkWCENSHXp8mWtSEmZkkjfcWaS3Mz2Ttv0332IbLJ+AuMwOOpYnETg4wd7K99GrWl0l/C5PWpVo1JtWTv09huwAAlE6MAAAAAAAAAAAAAAAAAAAAAAAAAAAAAAAAAAAAAAAAAAAAAAAAAAAAAAAAAAAAAAAAAAAAAAAAAAAAAAAAAAAAAAAACKuJn62MP+mmG/wDclcJVEWcSqEr0zhpU6lv/AOcsOMjVvsZlkdcZF0I+pn0L0bn12LqAJTAAAAAAAAAAAAAAAAAAAAAAAAAAAAAAAAAAAAAAAAAAAAAAAAAAAAAAAAAAAAAAAAAAAAAAAAAAAAAAAAAAAAAAAAAAAAAAAAAAAAAAAAAABS7j94tqbQeVQYBnuA3a6e5sceyKrvq1xp5EhdbexJU6ItlZoNC0MMIUlRKUSlPtkfIW6iuiKq8UGGafcY+MRdN8exSdmzGOXbNo/c1s5uHXx1x1GUiE3OURpefdb7Vk22iWltw0m8pk0EYAmrQXVGx1q0potVJ2GScWZyRtybX18qSTz5wDcUUZ9w0pJKTeaJDpJLmIkuJLmMSANK081IwrKycxelZcormljtlLxiwjpiT61n6lBnHIzI2ehpQ80a2V8p8i1EQ3UAAAAAAAAAAAAAAAAAAAAAAAAAAAAAAAAAAAAAAAAAAAAAAAAAAAAAAAAAAAAAAAAAAAAAAAAAAAAAAAAAAAAAAAAAAAAAAAAAAGFy7NMUwKlXkOY30OpgIcQyl2S5y9q8s9kMtp+qcdWfkobQRrWoyJJGZkQAzQ0vNdV8dw+xaxqNFn5FlMtrtomO0zSX5ziDPYnHN1JbjM7kZdvIW21v5PPzGST17uzVjVfyapmZpvibn/AJ2S0lWRWCP+HHWlTdegy22W72j5kaiNmOpJLPdMK0/xDT2udrcSp0xClO90TJDjrkiXOf22N6TJdUp6Q6ZERG46tSzIi69ABpfztcw1M/dWttqw3TudUYXTPK73qT/BnyTJLs8/ZbImo5kZpW07sSxJ8OHDrobFfXxWYsWK2llhhlskNtNpLZKEpLolJERERF0IiHsAA1nONOcS1DjRWskrlKlVzinq2xivLjTq50y2NyNIbMnGVGRbHyqIlF5KiUkzI9Q7/apaU/S8yizdQMWb817VQSO6hI9mZBYSRSyL0uQ0Es9yLubYlOCVQAGLxnKcczOlj5Hid5Ct6yURmzKhvJdbUZHsoty8yiMjI0n1IyMjIjLYZQR9k2kECVdSM1wC6fwvLJJkuRYQGyXFslEWxFYQzMmpZbESe0PlfSkuVt5sjPf4YesE3EpjFDrlTRcUlPuJjxL5iQbtBYOKPlQlMlaUnFeWZpImJBJ3UokNOSNuYwJPAAAAAAAAARpxD6kW2lOmUjMKa1oKp9FjXQlWF8yp2BCakS2mXH3kpeZM0oQtSv8ASoLyepkQAksBEGFaqXL2CyMvRmOOa0FInJh13zsqhLLanNvLbW4/ZSI6TLzm44+yhJbEflGnfHlxLwVy4dkvGrOLVuVE92TWSGGu+rdpHsWIJQ90vnG3N100c3aG3vyq7Qk7mAJvARjY64qrKetde0nzlWS2siRHj4mlqvKzUTCCW66TipZQ1NJQpJ86ZJkZqJKd17pLdsPyunznF6zL6Bbyq+2jIksds0ppxKVF9StCuqVEe5GR+YyMgBmAAABAPGdkOQ47p1j7uOZBaVD0vJGozz1dNdiura7jlr5DW2pKuXmbQe2/XlIVG8P9R/WjnPvosPjhanjm+txi39K2vg+cKdCXeBmGoVcrUqkE3xnrSZA3dDxuJoZ04Uqkorix0JtLp2Gc8P8AUf1o5z76LD44PD/Uf1o5z76LD44YMB1neOF6uO5dhw3hPHddP2n2mc8P9R/WjnPvosPjg8P9R/WjnPvosPjhgwDvHC9XHcuweE8d10/afaZzw/1H9aOc++iw+ODw/wBR/WjnPvosPjhgwDvHC9XHcuweE8d10/afaZzw/wBR/WjnPvosPjg8P9R/WjnPvosPjhgwDvHC9XHcuweE8d10/afaZzw/1H9aOc++iw+ODw/1H9aOc++iw+OGDAO8cL1cdy7B4Tx3XT9p9pnPD/Uf1o5z76LD44Xg4Wbm4v8AQzH7S+tptnNW/ZNLlTJC33lpbsJDaOZxZmpWyEJTuZmexEKBi+HCH9j9jv8AK7f4TlDi+HOGo0cvhKnBJ8dakl/DIkXuaYzEYjNKsa1SUlyb1tv+KO0mMAARUTaAAAAAAAAAAAAAAAAAAAAAAAAAAAAAAAAAAAAAH5WtDaFOOLShCCNSlKPYiIvOZmNHzDVyix25PDaCBLyvMDbS6VBUGhb7Da/qHpbijJuGyex7OPKTz8qibJxRcp4VGlOQ6hrTYa8WkSxiGZLbw6qdc7xs/wDtlKUlDloZf8dCGD2SZR0rSSgB/XtWbzPXV1ehNRGuGSUbb2W2SVpoYxkex9iaTS5ZLL+DHMmdyUlUhtRcozGI6R1FDdIzTJrWbl2YE2tsry1JBrioWWy2obKCJqG0ZdDS0klLIk9qt1Rcx7fLm1FBAQ9Olw62E0bbCFvOJZaQalEhtBGexFuo0pSXpMyIh9gAAPmsrKup4L9pb2EaDCjINx+RJdS000gvOpS1GRJL75mPoIyMtyPcjAH9AB802zra046bGwjRTlvpjRyedSjtnlEZpbRuflKMiMySXU9jAH0gPket6qPZxqWRZxGrCY049GiLeSl55ts0k4tCDPmUlPOjmMi2LmTv5yH1gAPGZDh2MN+vsIrMqLKbUy+w82S23W1FspCkn0UkyMyMj6GRj2HzWNlXU8CRa28+NBhRG1PSJMl1LTTSCLc1LWoyJJEXnMz2AEZ/O1zDTP8AdWiVqw5Tt9V4XcvK73pT/BgSSJTsA/YbMnY5ERJQ01uaxsOFar47mFi7jUmLPx3KYjXbS8duWksTm0EexuN7KU3JZ3Mi7eOtxrfyefmI0ltUK1q7JyUzXWUWU5BdJiUhh5KzYdNCVkhZEfkq5VoVsex7KSfmMhiM10/xDUKuarctp0yyiu90Q5DbrkeXBf22J6NJaUl6O6RGZE40tKyIz69QBsICKu7NWNKPJtWZmpGJt/8AnYzSU5FXo/4kdCUt2CCLfdbXZvkRJImZClGst7xHNMUz2lRkOHX0O2gLcWyp2M5zdk8g9lsuJ+qbdQfkrbWRLQojJREZGQAzQ1PUzA/ni49Fou+ve/ua3rbXtew7Xm7kltyOz5eZO3N2fLzb9N99j22PbAAEca66Rr1kxWFjqZ9I0UGzZsVRL+k78VM4kJWXYy4XbM9ujdZLSXaJ5XG21deXY9JxzhZdxDHTo8azGoik1W29dGYXi0ddeludORKNpyEThNqjESDZUynkNTaj5VtqIlCfQAFcrjg9qLfCaSikFp7KsaKdKmRYllgiJmMR0yEIQ4zHplyv3OguzStHJI3S4bijNROKQJs0+w6Hp/hVNhcBUVTNRERGSqLXx4DKjLzmiPHQhppJmZmSEJIi+/5z2EAAAAAFceOb63GLf0ra+D5wp0Li8c31uMW/pW18HzhToTJwI+6l+aR597pP34/yR+YAAHXnAn9Qhbi0ttpNSlGRJSRbmZn6CGbl4Lm8CQiHOw68jPuMrkoadrnkLU0j6twiNO5pT6VeYvSP7gl3BxrNKO/so5vxa+ezIeQRbnypWRmZF6TLzl98iE8QNVdOqlLtFKzp61btp9vLOx7hkdlXtyWlJbbUlaCcPcz3VyEoiP0mNRmGOxOFmo0KTmrX1N7dmz0672Wk3uU5bg8bTcsTWUHdLS0tm1q97vStVrvQQ3j2kudZLTWV5X0UtMeuiImkTkV4lSm1qMi7DZBkvzGfnItiPr0GMk4BncJ2MxMwq+YcmuKajIdrXkqfWRGZpQRp8oyIjMyL2DE60+eaeEzBxODl7MhxNBX1Tcg4clLbspqWS1ILdvmIlF9SZkRdS3Muoy97qThWC6gXDNzkbti9NytmY8hqM6o61ltjslKXzpIlK67bNmryEl138kavwzj1VlBUW9biuLJOysvm3p9Wtm78X8rlRhN4hLUpPjRau+M/gktG3jakyAsX0szfLos6dVUUso8GE/N7VyK9yPk0okqaaUlBkpzczIk9PMfUthqQn8sz04gY63isbOo0lR0WQQlS+4ZaGUvy5DLjKdja59jSlRGfKexpPfzlvAA3GX4mviZVHWi4q/2bprRdq+nba/ouc/muDwuDhSjQmpSa+01JPTZO2jVa7Wt3sAABszTgXw4Q/sfsd/ldv8JyhQ8Xw4Q/sfsd/ldv8Jyhw/D77up/nX8siSu5d97Vf/G/5okxgACJCdgAAAAAAAgzAtV+I3UnBsd1ExvRbTduoympiXUBE7Uae1JTGkspeaJ1CKRaUuEhaeZKVqIj3IlKLqee8I+Kf1N6VfpLsf2EHCd9ixo3+L/Hvg5gSqAIq8I+Kf1N6VfpLsf2EHhHxT+pvSr9Jdj+whKoACKvCPin9TelX6S7H9hB4R8U/qb0q/SXY/sISqAAirwj4p/U3pV+kux/YQeEfFP6m9Kv0l2P7CEqgAIq8I+Kf1N6VfpLsf2EHhHxT+pvSr9Jdj+whKoACKvCPin9TelX6S7H9hB4R8U/qb0q/SXY/sISqAAirwj4p/U3pV+kux/YQeEfFP6m9Kv0l2P7CEqgAOZXFFrBxs4rxY4zVaI07J5dOoWF3GI4/kEvJKdyKUhZNPy0SYMVuEpXlJU4kyPkJKjU3vuu097mGvCsexVetVe5p7STalLuW2WF72bsKf2iyOOt8+ZyFFNom1LkNsvchrcLuiOTSX3bFpZZQ6t5DSEuOERLWSSJSiLfbc/Ttuf9o/YA1rTzHcCxvFosfTaJWt0cz93NPwXSeRNU4RGclb+6jkLX0NTqlKUs+pqM+o2URnZ6PvUFjJyfRi8RiFpKdVImVimVPUdm4o91KfhkpJMuqMzM5Ec23FKMjc7Ykkge+PawR03UTC9TqM8Jyma52MOPJlE/XWrmxntXzeVCZJ7EZ9ktDUjlSajZSnqAPXXWzsqjTtybU2EmFIK2p2yejuqbXyLsY6Fp5kmR7KSpSTL0kZkfQx66t1GrFvSMs6U5HDq5aXUnIJbrcV91POk/pcp6LNaaIkkslJVEcNfMRJcZMuY97AARPqPKtsc4csgmVycgorCFTvLb7utTk2EdwjPylSUuuGpW/UjJw9iMi8nblKKq1OQxMmqs78Psvdm2OfZDQOxHb6UuvKubYnKbZKGpw2CNDjKFpdJBOF0SSuUiSVrR5vstSWXI7yeZt1JoWW+26TLYy6ACj2H55aSdMH7TA9UMvye2Vps/Y5i4u8lT3qq1bKOcbZrnUcF9TZyT7NtKDcQjtFJUflnsmZ5vg+p+cxcjTqLJl4jU5piSoFjByWRFrud6NJIzbdYeQ24lbpttn1MlObo6nuQtjj9DU4tRV+NUUXuWtq4zcOIz2il9my2kkoTzKM1HsREW5mZ+yYyAAgHVDVHTPENdtOMryzUTGKSkOmyWAVlY28eNF7pS9CSpntXFkjtCU24Ro33I0KLboYjHXPU7JrDVSLKxLUfHYlZMqquXgkvw/sK9qzdddV27kSvgxJLV9v8ASUqbWauRKkmlKO07Q7mAAKqVpZbDyuqzyDmmVS7ix1AyGgKukXstdYuE2xOUzG7jWs2C5XWUKS6TZOEXk83KRJKOJ1nS5Zp3k1ZB1Ty3IXJ2mNrZZXFeyme8mDetvR+3bNPaF3G4hXOhUVHIhtPk9mglnz3wWgnEKbUaiJRGR8qjSfX2DLqX4SGpYXpThuBWMy4o0XUqwnIJl2bdZBYXEhLRKNXZNuznnVtN8x83ZoNKN+u24Arpj9exXXtnnuI5xfuMs6iUFbB7mv5D0GXAkwa5p3tkG4puYbiFkZPPEtwjIlIWW5726AY++yChxWml5Fk91AqKqA2b0udOkIYjx2y86luLMkpL75mAMgIa1mr9PMdt2MtiZBZ4xqHZoJmudxqN3VZ3XZlsTLsEkqTOZSRkRqdRsylSlE6x1cLIeF+pOqf0nTOucxLG3Oisqu4ZlMkp9mvrnEkexlvs/K5EkZJNLEhCuYtpwfTDE8BVKnVMaRMubIk98ruykKl2U807mXayF7q5CMz5Gk8rTZHytoQnZIA0agyni3kU0R620a0z7rW3u73VnUyA8Z+yuMzWzG2VGW26ESn0pPoTi/OMh4R8U/qb0q/SXY/sISqAAirwj4p/U3pV+kux/YQeEfFP6m9Kv0l2P7CEqgAIq8I+Kf1N6VfpLsf2EHhHxT+pvSr9Jdj+whKoACKvCPin9TelX6S7H9hCt/H5qHxJ4roCq+fpMYwm5i31d4PTsV1GspFlIsVOGgozcXvTHTLJbKpHMyt0kmlJq2UaCSd5R+FssuqbW60hamVc7ZqSRmhWxp3L2D2UZb+wZl6QBzcdzrjFzfh/xqXxWae1tGpOSxjq569odpO3r5vMcqCkjSyfn6/STLYi7IyPnGpC4vHN9bjFv6VtfB84U6EycCPupfmkefe6T9+P8kfmAAB15wIAAAAAAAAAAAAAAAXw4Q/sfsd/ldv8JyhQ8Xw4Q/sfsd/ldv8ACcocPw++7qf51/LIkruXfe1X/wAb/miTGAAIkJ2AAAAAAACKuE77FjRv8X+PfBzAlURVwnfYsaN/i/x74OYEqgAAAAAAAAAAAAAAAAAAAAAAAAAAAx2Q47QZZSy8cyilhW1VPb7KVCmsJeYeTuR7KQojI+pEfUvORGMiAAirwW1N0r+naez5Oa4y31VjNzNLvlFR/BgWDpl2hF6GZij3M9ikNISSBteD6l4nqAmUzSS32LOtNKbKosI64ljXrVvsT8dwiWkj2PlWRG24RcyFLSZKPahqecaYYnnyos62jSIdzWkrvbd1shUSygGrYz7KQjZXIZkXO0rmacIuVxC07pAG2AIq8L9SdLPpOplc5luNt9E5VSQzOZGT7NhXNpM9iLbd+LzpMzUamI6E8xyLQ5BQ5VTRMixi6gW9VPbJ6JOgyEPx5DZ+ZSHEGaVF98jAGQAAAAAAAAGn5xqniuCyYtNMXJtMisW1OV2PVTRSbOakj2NaGdy5WiMyJTzhoZQZlzrTuQ1rwF1A1R/dGrdl3goHOqMQoLBwjfR6CsJ6CQ49uW3NHY5Geq0LXKQe5gfZcavuW1pKxPSCh8MbuI6qPNlk8bFNVOkeykypvKolOJPocdhLrxHy86W0q5y/dDpAmRcxMy1Tv1ZpkkJwpEI3oxMVdS6XmVAhcyiaUXXZ51bsjqou1JJkgt6p6aox6ri0dBVQ6yugtJYiw4bCWWGG0lsSENoIkpSXoIiIh9gAAAAAAAAAAAAAAAAAAAK48c31uMW/pW18HzhToXl4uMEyjOtN65GKVbljIpLlu0fis9XnGExpDSuyT+/URvJPlLqZEe257JOjJGRmpPUlIUaFJMtjSoj2NJkfUjI+hkfUhMHAerCWWcmmuMpO66VcgLulUKkc4VWUXxXFWfQ7Xvp9B/QAB2ZHgAAAAfwzJJGpRkRF1Mz9AzGJYhk2eXjeOYhTP2U5eylpbLZDCD/8R1Z+S2jofVR9T6FuexHcLSLhOxLDG2rnPURMnvDJKiadaJcCIouv0ptZfTFEf/iLLfoRpSg999FnHCHB5NG1V3n0RWv9di9f6HT8H+CeP4QSvRXFp9M3q/Ta/V+rRVXCdIdTdRWW5uIYfMlwHDLae8pEaKaT/fJccMu0L+LJf/MSxV8EmoclpCrjNMegLUW6kR2XpXJ97c+z36fg/wD2LlkRERERbEQ/ojvF8OMyry/sbQXoV3vfYiWcD3N8nw0V3xxqktrdl+iVviynNlwQZuySzqM+o5hluaCkwno2/sEZpU5t+HY/wegRhmWguruCNPTLzDJEiAz1VOrHEzGSL0qNKPpqEl6VLbSX3/Pt0VAU4XhtmlGX9q1NelW96t8yvG9znJcTFqipU3tTb90r/I5VNutvNpdZcStCi3SpJ7kZfeMXy4Q/sfsd/ldv8Jyh6at8M+C6loes65hrHchWo3O+MOOkkyVn5+6Wy2J7fp5W5LLYtlbbkee0EwO80z0qqcKyR2G5YwX57jqobilsmT0155PKpSUmfkuJ85F13GZwj4RYXO8shGn9mamm4vZxZaU+lf1Y1/BLgnjODmb1JVWpU5QaUlt40XZroe9ekkEAAcGSaAAAAAAAEVcJ32LGjf4v8e+DmBKoirhO+xY0b/F/j3wcwJVAAAAAAAAAAAAAAAAAAAAAAAAAAAAAAAAAAARzfaQJj3MvMtLL9WF5JNcORNNmMT9XbOn51T4XMknVH03eaW1I6JLtTSRoORgAEbU+r7lTaRcT1fofA67lupjwpZvG/TWrpnslMWbypJLij6FHfS08Z83IlxKec5JHx3FNUZDVyqO/qodnXTmlMSocxhLzD7ai2NC21kaVJP0kZGQhjNYGX8P1PHt9N8h74Y7Ot6qhaxzIXXpTddIsp7ECO9FlGo30MNvSm1rjLNxPZoNDJsEREYEv5NlOOYZSyMjyy8hVFZFIjelTHktNpMz2SW5+dRmZESS6mZkREZnsI+7/AGqWq30vDYs3T/FnPPe2sEiupqPZhwX0mUQj9DkxBrLYy7m2NLgymM6QQIt1HzXP7p/NMsjGa49hPbJEWtUZbGVfDIzaiFsZp7QuZ9ST5XHnCItpBAGs4PpziWnkaU1jdcpMqxcS9ZWMp5cmdYukWxOSZDhm48oiPYuZRkkvJSSUkRFswAAAAAAAAAAAAAAAAAAAAAAAAAi/VHh0051TectbCG9VXiyIu+lcom3XNiIi7VBkbb3QiLdSTURFslSRKAC/hsVWwdRVaEnGS6UY2LweHx9J0MTBTi+hq5RjLOEDV/HluOUBVeUREn9LOK+UWUovSamXjJBfgJ1R/wD7j2bpNqzXumzJ0uyszLfqxVOvpPb77RKIdKQHXYfh1mNKPFqxjP02s/c7e44PF9zPKK8uNRlOHoTTXvTfvOc1NoRrTfLS3B0zuWeYy8qclENKS9k+2Uk9i9giM/YIxMOB8E1vIfTM1OyliNHSZH3vpFGtbhdD2XIcQXL7BpSgz69FltuLcALGM4a5niouFNqC9C073f3WMnL+53k2Ckp1FKo15z0bkl77mu4ziWE6YY4uuxyshUdTEQqQ+s17FslPlOvOrM1LMkp6rWoz2LqexDYhFXFj9ixrJ+L/ACH4OfEqjk5zlVk5zd29bes7mnThRgqdNJJaktCX6AAAUlYAAAAAAAAAAAAAAAAAARVwnfYsaN/i/wAe+DmBKoirhO+xY0b/ABf498HMCVQAAAAAAAAAAAAAAAAAAAAAAAAAAAAAAAAAAAAAARVxLfW6qPxgYJ/3VViVRFXEt9bqo/GBgn/dVWAJVAQrqff6+U+pmL41hWb4BCqMtkyo7CLTDps2TC7CKp5RqdbtGEvcxpMiIm2+Uj/fbdczQ671lpclRP4nkTaSyBWKpt1sxW4UuxbS8p4mkFJW+ltJMGe60EX0xBEajJfKBKICKbXiHx6I0hujwzKsjslyLVtVXVsxO6UR66R2EqUfbyG2zaSs0klJLN1fOXK2Z7kUjUF7V5RRV+SUknuivtIrUyK9ymntGnEkpCtjIjLcjLoZbgDIAAAAAAAAAAAAAAAAAAAAAAAAAAAAAAAAAirix+xY1k/F/kPwc+JVEVcWP2LGsn4v8h+DnxKoAAAAAAAAAAAAAAAAAAAAAAAirhO+xY0b/F/j3wcwJVEVcJ32LGjf4v8AHvg5gSqAAAAAAAAAAAAAAAAAAAAAAAAAAAAAAAAAAAAAACKuJb63VR+MDBP+6qsSqKW8fnFxS6DWGPYBnuAXi6i1tcayeqvq1xp5ElVXfxJc+Ippw2+RxDEdCkmS1EpT7ZHyFuogLUZPg3hHmOIZZ307n8FJMuR3P2HP3T28ZTO3NzFycvNzb7K3226ecaja6J3J48iLjObxq+7g5dKy6unS6g5UZt19x5SmHo6X21Oo5H1o3S62rfZRGW2wzGg2qFjrTpRQ6pz8Mk4s3kjTk2BXypJPvdwqcUUZ9ZklJJN5kkOkkuYkk4Rcx+cSAAK25JwbwMjqKrvpb4fkN5Wy7l7uvLsIYu4Zt2UvulzkiLfR2byFEkkOE4ZbcxKQsjIin3Fcfi4njVXjEE0HHqobUNs0RmY6TS2kkkZNMoQ03vt9ShCUl5iIi6DKgAAAAAAAAAAAAAAAAAAAAAAAADnDrdx+6oW2Xzq7R61i4/j1e+7GjzChMyZE8kqNPbmb6FIQhWxKQkkEZEflGe+xRt463FT64pPuHVfJRzNbhZl9Go6f2nbpSVviiXMB3FuEuOw0MQ3ThxlfiylLjK+1KEkn6L+s6zgOTHjrcVPrik+4dV8lDx1uKn1xSfcOq+Si144ZfsluXaZfMXwk62j7U/8AbOs4Dkx463FT64pPuHVfJQ8dbip9cUn3DqvkoeOGX7Jbl2jmL4SdbR9qf+2Wa+aiZprZpvoNNyrTiRCl4lZ19himZVcuElwkRrJnudmc26nlcbU0tSmyLmNJqkN7oUSTEq8F2aa2aoaKQ9Wtc5MJqzzWQq3qamDCTHYq6pSEJjtp+qW52hJU+S1rWfK+gty22HPnLeKniFzvGbPDcw1JO1pbiMuJOhSKGqNt5pZbGk/3LuX3jLYyMiMjIyIxkYnGXxPwIrMGDqy5HjRm0tMstUFShDaElslKUlF2IiIiIiLzB44ZfsluXaOYvhJ1tH2p/wC2dbQHJjx1uKn1xSfcOq+Sh463FT64pPuHVfJQ8cMv2S3LtHMXwk62j7U/9s6zgOTHjrcVPrik+4dV8lDx1uKn1xSfcOq+Sh44ZfsluXaOYvhJ1tH2p/7Z1nAcmPHW4qfXFJ9w6r5KJq4dOPrKDyVGM68WUOXVTScU1eIiojuw1pQpRJdQ0kkLQrlJJGlJKJRlvzEfk5GG4U4DE1VSV03tSt8Wa/Ne43wkyrCTxb5OooK7UJScrLXZOMb22J32Jl/QAB0ZFAAAAAAAARVwnfYsaN/i/wAe+DmBKoirhO+xY0b/ABf498HMCVQAAAAAAAAAAAAAAAAAAAAAAAAAAAAAAAAAAABpea6r47h9i1jUaLPyLKZbXbRMdpmkvznEGexOObqS3GZ3Iy7eQttrfyefmMkmBugqnxRYVp9xkYzD05x7FJ2bNY1ds2j91WzW4dfHVHUZSYKJyiNLzzrfaMm2ySktuchvLZNBGJX+drmGpn7q1ttWG6dzqjC6Z5Xe9Sf4M+SZJdnn7LZE1HMjNK2ndiWJPhw4ddDYr6+KzFixW0ssMMtkhtptJbJQlJdEpIiIiIuhEQA1DT3UjC8sJzGKZlyjuaVhspmMWEdMSfXNfUoM45GZGzuRpQ80a2V8p8i1EQ3UaznGnOJahxorWSVylSq5xT1bYxXlxp1c6ZbG5GkNmTjKjItj5VESi8lRKSZkeod/tUtKfpeZRZuoGLN+a9qoJHdQkezMgsJIpZF6XIaCWe5F3NsSnABKoDF4zlOOZnSx8jxO8hW9ZKIzZlQ3kutqMj2UW5eZRGRkaT6kZGRkRlsMoAAAAAAAAAAAAAAAAAAAAAAAOElepS4EZa1GpSmUGZme5mfKXUfQPmrP9mxP4hv/AKSH0iCZ+Uz9GKfkL1AAAUlYAZLGWmpGSVLD7SHG3JzCFoWkjSpJuJIyMj85GQtZqJTUiuIhvTirudOIlRKyCHB7yVuFRE2UNpRIM933q3sldepl2yyMlbGRluQzsNg++Kbne2lLo1u+1rZ6Wc/muerLMRHD8TjXhObemyjBxT8mMvO6bL0lQQFrch4b9KUKdr27HKCvp2N3OSNyEvxEQ2VxHzSlo46I6d0rIlfULQSeUiItj8n2zLQLS126kQW51xc35tM//CambT1sqOz3uS8l5uEplopxmvmI0smlfKkzM1K6nkvJsQk9XR79O/1X9xqocO8sm4pKWlSeq2iLSb06LXvpbT0aE7oqYAtVqjpFphc43LnU8KbTZDjun1TkKzhojt18nm2StLjKWyWbquqjd7T0luk9utVRh4zBzwc1GTvfZuN3kmd0M8oyq0ouLi7NP0pNetNMAADEN0Bj7511ipfdZcW2tPLspJmRl5RekhkBjcj/ANjSP/s/6yF2h/ex9a+JZxH9zP1P4HeUBw5yyur3ctv3HYMda1W00zUppJmf09fp2GL71Vf3Ni/3Kf1DvKnDSFObhyOp28r6H5SVe6DClUlT73ehteVs/wBJ3aAcJe9VX9zYv9yn9Qd6qv7mxf7lP6hb8d4dS/a+hb5xaf4d+1/xO7QDhL3qq/ubF/uU/qDvVV/c2L/cp/UHjvDqX7X0HOLT/Dv2v+J2F4TvsWNG/wAX+PfBzAlUcJE1FShJIRVxEpSWxETCSIi/sH971Vf3Ni/3Kf1D747w6l+19Bzi0/w79r/id2gHCXvVV/c2L/cp/UHeqr+5sX+5T+ofPHeHUv2voOcWn+Hftf8AE7tAOEveqr+5sX+5T+oeUmrrUxnVJroxGSFGRkynp0/APq4bQbtyL9r6H1d0SDdu937X/E7vgNc04+t5i/8AMsH/AAEDYx3MXdJkjxfGSYAAH0qACv3FnjvhXK0tofALFsz7qy1Zd5Mne7KtlbVstX05Xc0nbl25i+kr8pKfN5yxucuWuleHYtp/p3irmn1pYt2FrLoNK4VG4hpDCUm6+mTcNxYaWUm432hnH7ZZrTy8pJWoAWTAU9xnPNR8riKymhuZDGRZPjeIvS+866tq0mEtie44iuTYGcI3zNJKNLm6OzS6aepJHtnus+saodTW4LZ5dJXWYtJvZVnGiY3DW/LYlOMKbtE2chplMds2jS8uCojNSjWhbaDbIwLeAMfj8+TaUNbZzWWmpEuIy+6206lxCFrQSlElaTNKiIzPYyMyPzkZ+cZAAAAfla0NoU44tKEII1KUo9iIi85mYA/QwuXZpimBUq8hzG+h1MBDiGUuyXOXtXlnshltP1Tjqz8lDaCNa1GRJIzMiGjPas3meurq9CaiNcMko23stskrTQxjI9j7E0mlyyWX8GOZM7kpKpDai5RmMR0jqKG6RmmTWs3LswJtbZXlqSDXFQstltQ2UETUNoy6GlpJKWRJ7Vbqi5jAwvdmrGq/k1TMzTfE3P8AzslpKsisEf8ADjrSpuvQZbbLd7R8yNRGzHUklnumFaf4hp7XO1uJU6YhSne6Jkhx1yRLnP7bG9JkuqU9IdMiIjcdWpZkRdeg2EAAAAAAAAAR9k2kECVdSM1wC6fwvLJJkuRYQGyXFslEWxFYQzMmpZbESe0PlfSkuVt5sjPf4YesE3EpjFDrlTRcUlPuJjxL5iQbtBYOKPlQlMlaUnFeWZpImJBJ3UokNOSNuY5PHjMhw7GG/X2EVmVFlNqZfYebJbbrai2UhST6KSZGZGR9DIwB7AIq+drmGmf7q0StWHKdvqvC7l5Xe9Kf4MCSRKdgH7DZk7HIiJKGmtzWNhwrVfHcwsXcakxZ+O5TEa7aXjty0lic2gj2NxvZSm5LO5kXbx1uNb+Tz8xGkgN0AAAAAAAAAAAAAAAAAAcI6z/ZsT+Ib/6SH0j9vVU2ifdorKO4xMrHFwpLTqeVbbrSjQtKi9BkpJkZegyH4EFVE1Np7T9FqMlOlGUXdNIAACgunrElPwZTM2K5yPR3Eutq2I+VST3I9j6H1L0jY5epmbzs/LVGVd8+TlLRO7u7mZL6egiJKuzJHZ9CSXTl26eYauArjUnBWi2tN/1Wp+ssVMNQrS41SCbs46Un9l2uvU7K61Oyub7I111UlzUWMjKeaQ3WSqdK+4YxbQ5CjU83sTe3lKUZ831Rb9DIZB7iT1nkJMpOXMvLLfsXXamEt2KZsEwao7hs88dRtJJJqaNJn5zPczMRkAvLGYlaqkt7MGWRZXK3Gw1N21fYj06dhukrWTUia3NZlZHzosaZnHpJdxsF2le0e7bPRHTbb6otlH6TMaWACzOrOr5bb9bM3D4TD4RNUIKN9dklqVlq9Gj1AAAUGQBjcj/2NI/+z/rIZIfRX4jeZ5OZxHG6+ROs7E1FHjx2u0ccNCTcVskvPslCj/ARi9houVaCWu6+JjYypCjh6lSo7RUW23qSsfblH+9V7/O03/HWMaMllH+9V7/O03/HWMaKcT/fz9b+J+LeM/xFT8z+IH2VVJc3rrzFJUTbB2OwuS8iLHW6ptlBbrcUSSPZKS86j6F6R8YlnhvpKa9ybKGLuohWDUfELaSyiVHQ6lt5DZGhxJKI9lJPzKLqXoDDUe+Ksae0YSh31XjR2siYfZUUlzkEwq6hqJtlLNC3CYiR1vOGhJGpSuVJGexERmZ+giG8aa+A/eqV4UfO67o7o+l+EvhF2/Jyl9R3s+lcm+/1fl77+jYbXoTSYpkGvMmufqMdsqg6+ycaYix5D0AzTFWpKmkziN7YlFuRueURl+AXqGD5WVNcZfaaVr6V6y/h8By86UeOvttKyelX2q2ghABJOhN3pLR5kxL1XopU2ESJJJdN9Coje8Z1KSdjHGdU6o1mjlUSk8iuVRkZJGpqv66myhnIMHrZEBqG4h6KzbOR7RSFkXnXzMIacLfqRG106ecy3FnkoKnGo5rS7W6Vq07Onb87WHRgqUarmtLaaV7q1tPQunRp+dsfbUlzQyG4l5UTa591lEhtuXHWytbSy3QsiURGaVF1I/MfoHxCbuLudLs9SqiynvqfkysVqXnnFeda1M7qM/wmYhEVYuisPXlSi7pMqx2HjhcTOjF3UXYDylf6q9/Fq/5D1HlK/wBVe/i1f8hYj5SMaHlI7ZacfW8xf+ZYP+AgbGOU/F9rHx2YrVY5SnSPYXo0uLAYVkmLyXFOyIRoZLnmTm2nHoKjI+pIZLbmUku3IiNV+qzI+JrvdF726RaUvxOwb7ndLVGyeJxvlLlV2h0Zmvctj5jM9/PuYneHko9LU/IXqJeARV4R8U/qb0q/SXY/sIPCPin9TelX6S7H9hCorJKm1FTZSIcuxrIkp+ueORDdeZStcZ00KQa2zMt0K5FqTuWx7KMvMZjGZVgWDZ0VeWbYXRZCVTKTOgFa1zMvuSSn6l5rtUq7NwvQpOxl7I0jwj4p/U3pV+kux/YQeEfFP6m9Kv0l2P7CAG12ulGlt7SSMau9NcVsKiU2wy/XyqaO7GdbYUamELaUg0qS2ozNBGWyTMzLYfq70r0wyWvp6nI9OMXtYOOrQ5TxptPHfarloIiQqOhaDJk0kRERoItiIthqXhHxT+pvSr9Jdj+wg8I+Kf1N6VfpLsf2EAJVARV4R8U/qb0q/SXY/sIafnGW65NSo0fVerY0/wAHcbM7K6wSwevpCFb/AFD8h2JHdgMGnfmeaiu8pbqORF5SWYEl5hq5RY7cnhtBAl5XmBtpdKgqDQt9htf1D0txRk3DZPY9nHlJ5+VRNk4ouU9cq9PJ+rTCb3WLJKu/rFOLS1ilFLU7QMrQs0rRJcMkrtFJUlSTJ9CGd0kfcyFp5hvGnmO4FjeLRY+m0Stbo5n7uafguk8iapwiM5K391HIWvoanVKUpZ9TUZ9RVee7lOX02STJ2o+aw1Y/h+QW8Iq7IZkQynMXE1LDyzacT2hNoaSgm18zak7JUlRJSRAXKZZajtIjx2kNNNpJCEISSUpSRbEREXmIi9A/kiQxEYclSn22WWUKccccUSUoSRbmozPoREXUzMVAj5zIk6l2qU6nZE/nbOX0jFHjRXbyGHqx2JAVYKTXksm5DJIcfcW4pCiZURGk2zUfN6OahtZtXwtMHc2t5lw27nEPIq+PaSWZkZKESjjNSDbWl1pXIbamSMyM0JJSOhbgC0ldm+F290rGqnLqWbbogtWaq+PYNOSShu/6OQbSVGrsl/vV7cp+gzHu/lGMxaywu5WRVjNdUG6mwluS20swza/0pOrM+Vs0fvuYy29OwgzhKXRONWC8Zt++laeL4r2Evviuf2n7jd5vp61rUvZXMXVR7bbdNtikHS2zsrOrzZVlYSZZxsruIzBvuqc7JlDmyG07mfKlJdCSXQvQANzXk+NN0LeVOZDWJpXmm327I5bZRVtObdmsnd+Q0q5k7Hvse5becZMVkzK/oo3BSxHk3UBp2sxWhmTULkoSqLHU4xyuuEZ7oQfZubKVsXkK69DHhxBa4YvluMY9P0u1Ywu2xFN2cXKbSHqO5RQohdzrXGakXFch52FzvEjb6gnDJLZqIl8qgLRAKXrXnGXYS5PyDVDJUP0mmMu9gyMfyKxitPSm5kjuSUp024rkrlabQk1Osk2+R8ykrI0mMnnuaPqzCQrItS7+myxu3xVvHqaDeyYzU6mfdhlKfOE2om30reckNuPKQo2+VCOdBK2UBaqJk+N2D7EWBkNZJelHISw2zLbWp02F8j5JIj3UbazJK9vqT6HsYyYphp7g2N3lrj2HwcsyRluPZ5+my7hyqcmew6me0aWu6Uv90Rz2Nlw0oWjm85kZOK5rBaZWGc5Xw/4paQcjY8JbChhOqsbGN2xOOm2k1rWlBpLnUW+ytjJKjJRoWRGhQEmjXs10/wAQ1Crmq3LadMsorvdEOQ265HlwX9tiejSWlJejukRmRONLSsiM+vURGdRrVT6evx7ItU5GYHMY7ssMXvccsnJaOVexx++keJCbaSXKlwkwoy1K2Mic8pZ7HWy81gaC5NOyWTnUa7jVdm629lS6ZFo2aWVm2rmpf3KREZbpNPllt5XUAevdmrGlHk2rMzUjE2//ADsZpKcir0f8SOhKW7BBFvutrs3yIkkTMhSjWW94jmmKZ7SoyHDr6HbQFuLZU7Gc5uyeQey2XE/VNuoPyVtrIloURkoiMjIRFoVXWmO52/TPZjk91Hs8JpLuSm6uJE8inuLkIeeaJ9auwJZITu03ytkaS2SXXfJazV+nmO27GWxMgs8Y1Ds0EzXO41G7qs7rsy2Jl2CSVJnMpIyI1Oo2ZSpSidY6uEBMoDWtN5+dWeE1c7Uumh1WSutrOdEiKI22zJxRIPZLjqUKU2SFKQl11KFKUknHSSS1bKAAAAAAAAAAAAIK1g4NNGdZsgXllyxbUty+W0qZSyW2VSjItkqcQ4242aiL98SSUexEZmRERR59DP0U9vuof55X/IxbgBr6uU4GvN1KlKLb6bHU4Phtwiy+hHDYbGVIwjoS42hLYr9BUf6Gfop7fdQ/zyv+Rh9DP0U9vuof55X/ACMW4AW/AmXdTHcZPOFwp/HVN5Uf6Gfop7fdQ/zyv+Rh9DP0U9vuof55X/IxbgA8CZd1Mdw5wuFP46pvKj/Qz9FPb7qH+eV/yMPoZ+int91D/PK/5GLcAHgTLupjuHOFwp/HVN5Uf6Gfop7fdQ/zyv8AkYfQz9FPb7qH+eV/yMW4APAmXdTHcOcLhT+Oqbyo/wBDP0U9vuof55X/ACMPoZ+int91D/PK/wCRi3AB4Ey7qY7hzhcKfx1TeVH+hn6Ke33UP88r/kYlvRTha0m0IlSbXEIE2ZbykG0u0tH0vyENGe5to5UpQ2nfz8qSNWxcxnsW0ugLtHK8Fh5qpSpRTXTYwsw4ZZ/mlB4XGYuc6b1py0P17TiDlH+9V7/O03/HWMaMllH+9V7/ADtN/wAdYxohrE/38/W/ieSMZ/iKn5n8QAALBjAAAAAAAAAAAAeUr/VXv4tX/Ieo8pX+qvfxav8AkKo+UiqHlI7YaeNtvacYyy82lba6SElSVFuSiNhG5GXpIbIlKUpJKSIiItiIvMRDXdOPreYv/MsH/AQNjE7w8lHpan5C9QAAFRWAAAAAAAAAAARnZ6PvUFjJyfRi8RiFpKdVImVimVPUdm4o91KfhkpJMuqMzM5Ec23FKMjc7Ykkge+PawR03UTC9TqM8Jyma52MOPJlE/XWrmxntXzeVCZJ7EZ9ktDUjlSajZSnqJFGOyHHaDLKWXjmUUsK2qp7fZSoU1hLzDydyPZSFEZH1Ij6l5yIwB+ajG6WimWs+qhdg/dzCnz19otXbPk0hrn2UZknyGmy2TsXk77bmZnkxFXgtqbpX9O09nyc1xlvqrGbmaXfKKj+DAsHTLtCL0MzFHuZ7FIaQkkDa8H1LxPUBMpmklvsWdaaU2VRYR1xLGvWrfYn47hEtJHsfKsiNtwi5kKWkyUYH2Q8HxyvzKxz6GxMbubeIxCmL74yTjutsmfZn3MbnYEsuZRdoSCXsexqMugydvVxburl081cpEeayth1UWU7GeJKi2PkdaUlxtWx9FIUSi85GQ+sABj8foarFqKvxqjjHHrquM3DiMm6tw22m0klCTWszUrYiLqozM/SZjIAAADTrfSXC7/Lo+a3SLubOiONPMxH8hsVViHWurbve43+4+0SZEol9jzEoiUR8xEY3EAAAAAAY++yChxWml5Fk91AqKqA2b0udOkIYjx2y86luLMkpL75mNGuNX3La0lYnpBQ+GN3EdVHmyyeNimqnSPZSZU3lUSnEn0OOwl14j5edLaVc5fuh0gTIuYmZap36s0ySE4UiEb0YmKupdLzKgQuZRNKLrs86t2R1UXakkyQQHweF+pOqf0nTOucxLG3Oisqu4ZlMkp9mvrnEkexlvs/K5EkZJNLEhCuYtpwfTDE8BVKnVMaRMubIk98ruykKl2U807mXayF7q5CMz5Gk8rTZHytoQnZI2wAAAAAAAAAAAAAAAAAAAAAAAAAAAAAAAAAAAAAAAAAAR/J4etApkh2XL0O0/fffWpx11zGYSluLUe5qUZt7mZmZmZmPPxceHr1D6d+9eD8UJEAWuRpeatxZ73o+YtyI78XHh69Q+nfvXg/FB4uPD16h9O/evB+KEiAHIUvNW4d70fMW5Ed+Ljw9eofTv3rwfihCXGRD4ceGnh/yTUdvQvTc7tbfevHmFYtAV29o+lRM+SbWyybIlvKT03Qysi67C2Ix1pjmPXcuun3VFXT5NPI7rrnpUVDrkN/lNHasqURm2vlUpPMnY9lGW+xhyFLzVuHe9HzFuRRn5mvY6EcSGgTTGYaN6fTM3wx1NXduPYxB7WUysjVElq+lf8AiNpUg1Ge6lsOq9JC2fi48PXqH07968H4oa7wj45j0Xh10myeLRVzNzP04xmNLsW4qEyZDLdc0bbbjpFzrSk1KNKTMyLmPbzmJmDkKXmrcO96PmLciO/Fx4evUPp3714PxQeLjw9eofTv3rwfihIgByFLzVuHe9HzFuRHfi48PXqH07968H4oPFx4evUPp3714PxQkQA5Cl5q3Dvej5i3I8o0aPDjtQ4cdthhhCW2mm0ElDaElsSUkXQiIiIiIh6gAul4AAAAAAAAAAAAAAAAAAA1PONMMTz5UWdbRpEO5rSV3tu62QqJZQDVsZ9lIRsrkMyLnaVzNOEXK4had0jbAAEVeF+pOln0nUyucy3G2+icqpIZnMjJ9mwrm0mexFtu/F50mZqNTEdCeY5FocgocqpomRYxdQLeqntk9EnQZCH48hs/MpDiDNKi++RjICOb7SBMe5l5lpZfqwvJJrhyJpsxifq7Z0/OqfC5kk6o+m7zS2pHRJdqaSNBgSMAjan1fcqbSLier9D4HXct1MeFLN436a1dM9kpizeVJJcUfQo76WnjPm5EuJTznJIAAMXk2U45hlLIyPLLyFUVkUiN6VMeS02kzPZJbn51GZkRJLqZmRERmewj7v8AaparfS8NizdP8Wc897awSK6mo9mHBfSZRCP0OTEGstjLubY0uADZc41TxXBZMWmmLk2mRWLanK7HqpopNnNSR7GtDO5crRGZEp5w0MoMy51p3Ia14C6gao/ujVuy7wUDnVGIUFg4Rvo9BWE9BIce3LbmjscjPVaFrlIPc9vwfTnEtPI0prG65SZVi4l6ysZTy5M6xdItickyHDNx5REexcyjJJeSkkpIiLZgB8dPTVGPVcWjoKqHWV0FpLEWHDYSyww2ktiQhtBElKS9BEREPsAAAAAAAAAAAAAAAAAAAAAAAAAAAAAAAAAAAAAAAAAAAAAAAAAAAAAAAAABFXCd9ixo3+L/AB74OYEqiKuE77FjRv8AF/j3wcwJVAAAAAAAAAAAAAAAAAAAAAAAAAAAAAAAAAAAAAAfHcU1RkNXKo7+qh2ddOaUxKhzGEvMPtqLY0LbWRpUk/SRkZCGM1gZfw/U8e303yHvhjs63qqFrHMhdelN10iynsQI70WUajfQw29KbWuMs3E9mg0MmwRERzmIq4lvrdVH4wME/wC6qsAZTGdIIEW6j5rn90/mmWRjNcewntkiLWqMtjKvhkZtRC2M09oXM+pJ8rjzhEW0giNcy4htN8CydrD8ij5r30kKNEZuBgd7YNSlEjtFEy9GhuNPGlG5qJClcux77bGJGjvoksNyW0uEh1BLSTjam1ERluW6VESkn7JGRGXpAHoAAAAAAAAAAAAAAAAAAAAAAAAAAAAAAAAAAAAAAAAAAAAAAAAAAAAAAAAAAAAAAirhO+xY0b/F/j3wcwJVEVcJ32LGjf4v8e+DmBKoAAAAAAAAAAAAAAAAAAAAAAAAAAAAAAAAAAAAAAIq4lvrdVH4wME/7qqxKohniQyPHpGMQMWj31c7dQ83wCZJrUSkKlMsOZXWJQ6toj50oUaVESjLYzSZEfQwBnNRKm1m6raWWMKslyIlfPtFzH2mVLbjpXAcSk3FEWyCNRkkjPbcz2ESJwZjBv8A+UXNObNVgjVGdZXUquoXZdo9WEuY0wtLTLapMhlJyErSltK9icWtJdTMWUosjx7KYKrPGb6ut4aH3YypECUiQ0l5pZocbNSDMiUhaTSpO+5GRkexkMiAKL5zhOc5BR09lkGHvtY07Z5c65VXOnVhlKm5smz7SFIKBEkMOsumz2htSj3Q3znups1ko7iabQbms09xquyKXNlWkWqiszH5zaW5LjyWkkpTqUuupJZmR8xE6st9/KV5xsgAAAAAAAAAAAAAAAAAAAAAAAAAAAAAAAAAAAAAAAAAAAAAAAAAAAAAAAAAAAAIq4TvsWNG/wAX+PfBzAlURVwnfYsaN/i/x74OYEqgAAAAAAAAAAAAAAAAAAAAAAAAAANMyHWrRvEriRj2V6tYZS2sTk7og2F9FjSGuZJLTztuOEpO6VJUW5dSUR+YxjvGO4evXxp376IPxo5u8af2VOoX8orPgmGIVHD43hdUwmJnQVJPitq99n6EcZjw6q4HF1MMqKfEk1e702fqOxnjHcPXr40799EH40PGO4evXxp376IPxo45gMXx2q9St/0MPnErdQvafYdjPGO4evXxp376IPxoeMdw9evjTv30QfjRxzAPHar1K3/Qc4lbqF7T7DsZ4x3D16+NO/fRB+NFE/mn2A6RcRdTiGd6UaxadSc0p5zNJLQnK4LfdFZId8lxau0M+WO8rn6F0Q88s/qSFXwDx2q9St/0HOJW6he0+w6saM5zwr6I6WYzpRimu2nfe3GoCIaHTyWClUh3qp6Qsid2JbrqnHFbdOZZ7DdPGO4evXxp376IPxo45gHjtV6lb/oOcSt1C9p9h2M8Y7h69fGnfvog/Gh4x3D16+NO/fRB+NHHMA8dqvUrf9BziVuoXtPsOxnjHcPXr40799EH40PGO4evXxp376IPxo45gHjtV6lb/oOcSt1C9p9h2M8Y7h69fGnfvog/GjasUzXDc7rnLfB8tpchgMvHGclVU9qWyh4kpUbZraUpJKJK0ny777KI/SQ4kjox8zQ+srlX9M5HwdAG2yXhJPNcTyEqajobve+r9DecH+FtTO8Z3tKkoqzd731W9BbgAAdYduAAAAAAAAAAAAAAAAAAAAAAAAAAAAAAAAAAAAByzyLja4m4mRW8OHqIyzHjWElhlsqWErkQh1SUlubRmexEXUz3GP8AHi4o/WW17hwPiRDuUf71Xv8AO03/AB1jGiHcRnOYRqySrStd9L2kCYrP80hXnGOInZN9L2k6ePFxR+str3DgfEh48XFH6y2vcOB8SILAWvDWY9dLeyx4w5r+InvZOnjxcUfrLa9w4HxIePFxR+str3DgfEiCwDw1mPXS3seMOa/iJ72S9iHFvxD4JiVJg+MagNxabHq6NVVzCqiG4bUZhpLTSDWto1K2QhJbqMzPbczMxlvHi4o/WW17hwPiRBYB4azHrpb2PGHNfxE97J08eLij9ZbXuHA+JDx4uKP1lte4cD4kQWAeGsx66W9jxhzX8RPeydPHi4o/WW17hwPiR+HuOXikbZccLUpkzQk1FvRwPQX8SIOHlK/1V7+LV/yH2OdZg2v7aW9lUeEOauSXfE97O3mGWUu5w+it57hLlTqyLJeUSSSSnFtJUo9i6F1M+gzI1zTj63mL/wAywf8AAQNjEyQ0xRPtN3gmwAAKisAAAAAAAAAAA5M8af2VOoX8orPgmGIVE1caf2VOoX8orPgmGIVEL5z94VvzP4nnvP8A70xH55fEAADWGoAAAAAAAAAAAAAAAAAAAOjHzND6yuVf0zkfB0Ac5x0Y+ZofWVyr+mcj4OgDquB/3j/pfyO04B/ev+h/ItwAAJRJnAAAAAAAAAAAAAAAAAAAAAAAAAAAAAAAAAAAAA4g5R/vVe/ztN/x1jGjJZR/vVe/ztN/x1jGiC8T/fz9b+J5txn+IqfmfxAlnhvqItxk2UMy3ZraWMQtpCTizXoqjUlsjIlKaWk1J9lCjNKvSRiJhteB6jWunbd2ujq612Zd1rtUcySl1TsVh0jJzskpcS3zKLbc3EL25S22671YOpClXjOpqRXgKtOjiIVKvkrWZnTXEcYyKqlSb2l7tdakdmhfzwqfH+VPKR7djOaWtzqZ+WkyT6NtyMbXoTjVRI15k0LaJsSEzX2RtoiZEUhxPLFWoi7tgm2l0t/OaNkmXQyPqIQG2acakWmmNrLvaKorJVjIhvQ2ZE1LyjiE6g0LW2lDiUmo0qMvphLL7wvYbEUoVKbmtEWm9Wn3X3tl/B4qjTq0nUjoi03oWlL1RvvbM7oTSaS3mZMRNV72VChGiSaWjYQmI5tGdUk3ZJyWlNKJZI5UklXOrlSZkShqapeNUGUMzqJpWSVcRxDqWryCcQpJkXVLrTEhZknf+C71267dSGCAY/LLk4wUVdO9+l6tD6Oj+tN8XvhclGmoJNNvjdL1aH0WVtnzvN3F3LVP1KqJymGGDkYrUum0w2TbSOZnflQkuiUlvsRF5iEIj7ba7ub6Q3LvLebYvtMojtuS5C3loaQWyEEajMySkuhF5i9A+IVYuv3zXlVXS7lWOxCxeJnXStxncDylf6q9/Fq/5D1HlK/1V7+LV/yFiPlIxoeUiy/Enx/6/aYOYrozg+mE/T+FMiwYDWa3cZl85rXZtJORAS4tMQkeV0U84fRRc5MqI+W8kXWHP48VmOvhg1akrabShTzsvGSW4ZFtzK5bUk7n5z2Ii9giGepsMxHP9HaDFs4xmsv6eZSQSfg2MVEhlezCNjNCyMtyPqR+cj6lsY3aJEjQIjMGGylmPHbS002kuiEJLZJF94iIiE7w8lHpan5C9RGHz58/9HCrqqf/AObjP7XD582oPo4UtVT/APz8Y/bAlUBUVkVfPl1E9HChqr7o4t+2R+nNYtQ0KIk8KeqbhcqT3TY4tsRmRGZdbgupeY/RuXTcuolMABFXz5NRf/Sdqr7pYr+2Q+fJqL/6TtVfdLFf2yJVAARV8+TUX/0naq+6WK/tkPnyai/+k7VX3SxX9siVQAHIPiqubHIOIvObe2xO1xmXIkV/aVdo5FclR+WsiJLnVEeeZPmIiWXI6ryVFvsrdJSVpJo3p1kOI4FCusLk20nPWb1ybkLc2S2dGcRKia7NCTSzsRo5ldqlW5qPY9tiGl8af2VOoX8orPgmGIvrc2zOlo5mM0+XXUGnsTUcyvjT3Wo0k1JJKu0aSokL3SREe5HuREQiPF16WHzSvKrDjLjPZ5yfTtSavrV7ogvHYmjhc5xM68OOuNLRZP8AiT6dqTV9avdaUWoxjRXT6rypdw1hZOsVWGY/kDHay5XZlYPyEkpwzJ0jMlcqy5d+UuU9iLYbLmunmnGR5lKvLbSFm8scg1KXjMp5qznMJjxjaSan9kvbdoWyldS5Pqi5fMRU8b1N1IZpWsbZ1ByVFSw32LUBNs+UZDe5Hypb5+Ui3Ij2IttyIbM/xGawP4iWJHm9wjmmuTH7NFlKKfJJbaWzZde7Xy2iSlOyDL0F1F2nmmCVNwdOy16ovTp+TtcvUs5y9U3TdGy1+TF6bvatjsmyasg0A07xyfJXExNdlX1enNreKkPSpPZSbCNINDTy1NuJ23JJboQaUnuexekZXiuv5bOA5bGqU96mpOb1cSaiHIeSmajvE04XbEpaiURHyFylsn6Wg9ubdR1Wi6h5/Bx88ShZzkEejNDjZ1jVm+iIaHN+0T2JK5NlcyuYtuvMe/nGdsdasxvtP39PcsWjIoy5zc+NPtJUt+bCcQ12SUtL7Yk9mSDURIUhSS51GRb7bW3meGdGdKnDicZbFrs1bRp6dfaWnnGEdCpRow5PjLYtaTVrrTbTr36zLZ1CTU6NaRXkCXPbmSSunDUc55SGltziJCmUKWaGT9J9mSeY+p7n1GxcQiCv9a6NN2bs7u6hpjkm7aswVvGqKg1GqVIJTbZmfnW4Rl7IjfJtR5uT0+L46/j9RDqcTadbhw4vdHK6brpOPKdW46pwzWouvKpJF+9JI8tRtQbPUvIk5Ha1ldXuNw48FuPAS6TLbTKCQgi7Va1mfKRbmaj3GFUxNLk5Qj/9f/rGz95gVsXRdKcIPXyWjbxI2k9Ktr2rTsM9qViGL49TxpdHSdxPOSSbWv54dPkG6eVR7dhBaQ4jqRfTFGafRtuohPUnAtM42nVTmOU4a7k0tjG8Qajtz7qfyN92LcQ6SeR8jQgi6pQnZCTItiIjMjp+M05nGavQU1b2X3a4aG47SY6rB02koYMzYSSebYibMz5C28nc9tgw+NpUpTlKF7rRdRdnZ6bWS9wwuY0KE5ynTTurJNRdnZ6bcVLW76i4llw9aNU+Q4/irOmzk5vJcquKdywdtJZOQIzTS3G+z5XCQa0dDI3EqI0Nq5iMz5i0eVohgFTAtLlGJIsodXpfByNt9cmUUeTYqcMlOmaHSPlWST8hKuUiPpsfUQ9YcQOq1hhkbCVZbZMRmnpT0qUzPkplWPdBlzplL7TZ5JbbERl5jPfca4nUfUNGPliaM8yJNGTSmCrCtHyiE0r6pHY83Jyn6S22MZ1bMcDJ/YpLVsjodkremzu7mwxGa5bJ/YoLVo+zFWfFStq0pO7uWv4zLmUnALGFA3r40rNSalsxnnSbl8tawtJupUsyUZHy7F0IuUjIt9zODNUISaPTHR+7rJti1MkV06RzqsH3CZcRL8lTKVLNLG2xH9LJJGfU+vUYC+1szPLNPW9PctW3eNR53d8a0sJEp6fHXykjkSs3uQ0chcpJUhWxGe2x7GWouZBbS262LbTZFnBqfJiQpch1bDTZq5ltoSSiNtKj8/IaT677kfUWMfmFPFVZ1I/xRSXofGT+XRtMbM80pYytUqwXlxSX+VqSb+D1bSUeK+Q/L1dclSn3HnnqerccccUalLUcRszMzPqZmfpFtvmaH1lcq/pnI+DoAodqPqBaamZQ5lVvXV8F9cdiMmPBS4llDbTZIQRdota/qUl1NRi+PzND6yuVf0zkfB0Abng5VjXzmpUjqak/ejoOCdaOI4QVasNUlJr9Wi3AAAkglsAAAAAAAAAAAAAAAAAAAAAAAAAAAAAAAAAAAADh/lLrZZXfEbiSPvtN85/8dYxnbNfbUflEOz8jRTRqW+5KlaSYY888s3HHHKGKpS1Ge5qMzb3MzPqZmPx843RP1PYR734nxY4KrwMnUnKfLLS76vqRlW7n1SrUlU5daW35O39TjH2zX21H5RB2zX21H5RDs5843RP1PYR734nxYfON0T9T2Ee9+J8WLfiTPrlu+pa5u6nXr2fqcY+2a+2o/KIO2a+2o/KIdnPnG6J+p7CPe/E+LD5xuifqewj3vxPiw8SZ9ct31HN3U69ez9TjH2zX21H5RB2zX21H5RDs5843RP1PYR734nxYfON0T9T2Ee9+J8WHiTPrlu+o5u6nXr2fqcY+2a+2o/KIO2a+2o/KIdnPnG6J+p7CPe/E+LD5xuifqewj3vxPiw8SZ9ct31HN3U69ez9TjH2zX21H5RDylOtHGe+mI/0avSXsDtD843RP1PYR734nxYfON0T9T2Ee9+J8WPq4FTTvyy3fU+rud1E78uvZ+plNOPreYv8AzLB/wEDYx5sMMxmW40ZlDTTSSQ22hJJShJFsRERdCIi9A9B38VZJEnxXFikAAB9KgAAAAAAAAAADkzxp/ZU6hfyis+CYYhUTVxp/ZU6hfyis+CYYhUQvnP3hW/M/iee8/wDvTEfnl8QAANYagAAAAAAAAAAAAAAAAAAA6MfM0PrK5V/TOR8HQBznHRj5mh9ZXKv6ZyPg6AOq4H/eP+l/I7TgH96/6H8i3AAAlEmcAAAAAAAAAAAAAAAAAAAAAAAAAAAAAAAAAAAAAAAAAAAAAAAAAAAAAAAAAAAAAAAAAAAAAAAAAAAAA488ed/MquLXP48dplSVLq1ma0mZ7964hegy9gQH4ZWn2iL+Sr/MACJ80hF42q2v4n8SEM5pweY120vLl8WPDK0+0RfyVf5g8MrT7RF/JV/mABgcnDYjW8lT81bh4ZWn2iL+Sr/MHhlafaIv5Kv8wAHJw2IclT81bh4ZWn2iL+Sr/MHhlafaIv5Kv8wAHJw2IclT81bh4ZWn2iL+Sr/MHhlafaIv5Kv8wAHJw2IclT81bh4ZWn2iL+Sr/MHhlafaIv5Kv8wAHJw2IclT81bh4ZWn2iL+Sr/MHhlafaIv5Kv8wAHJw2IclT81bh4ZWn2iL+Sr/MOnvzLia7YaCZJMeShK3MzlbkkjIukCCXp/AADouDEYxx10v4X8jquB0IxzK8V/C/kXFAAEikrgAAAAAAAAAAAAAAAAAAAAAAAAAAAAAAAAAAAAf//Z;" vertex="1" parent="1">
                    <mxGeometry x="-20" y="80" width="445.58" height="480" as="geometry"/>
                </mxCell>
            </root>
        </mxGraphModel>
    </diagram>
</mxfile>